<svg width="69" height="83" viewBox="0 0 69 83" fill="none" xmlns="http://www.w3.org/2000/svg">
<path d="M49.2857 60.8596C49.2857 67.7715 44.6277 73.3756 38.881 73.3756H10.4048C4.65805 73.3756 0 67.7715 0 60.8596V39.7802C0 32.8683 4.65805 27.2643 10.4048 27.2643H38.881C44.6277 27.2643 49.2857 32.8683 49.2857 39.7802V60.8596ZM46 39.7802C46 35.0507 42.8129 31.2168 38.881 31.2168H10.4048C6.47286 31.2168 3.28571 35.0507 3.28571 39.7802V60.8596C3.28571 65.5892 6.47286 69.4231 10.4048 69.4231H38.881C42.8129 69.4231 46 65.5892 46 60.8596V39.7802Z" fill="#44465B"/>
<path d="M64.7581 75.2024C64.0177 75.2024 63.1667 74.9482 62.5183 74.4661L46.9276 62.8985C46.4281 62.5271 46.1018 61.8606 46.1204 61.1547L46.6012 43.0505C46.6176 42.3999 46.8936 41.802 47.3492 41.4503L62.3551 29.8971C63.0177 29.3901 64.0002 29.124 64.7581 29.124C66.9682 29.124 68.9999 31.3248 68.9999 34.0314V70.2937C68.9999 73.0016 66.9672 75.2024 64.7581 75.2024ZM49.4061 60.1406L64.3649 71.105C64.8325 71.4567 65.7142 71.1156 65.7142 70.2937V34.0314C65.7142 33.2069 64.8347 32.8592 64.3528 33.2293L49.9581 44.2187L49.4061 60.1406Z" fill="#44465B"/>
<path d="M32.4817 30.8585C28.1971 30.8585 24.7109 26.665 24.7109 21.5114C24.7109 16.3565 28.1971 12.163 32.4817 12.163C36.7662 12.163 40.2535 16.3565 40.2535 21.5114C40.2535 26.665 36.7662 30.8585 32.4817 30.8585ZM32.4817 16.1154C30.0086 16.1154 27.9967 18.5349 27.9967 21.5114C27.9967 24.4853 30.0086 26.906 32.4817 26.906C34.9558 26.906 36.9677 24.4853 36.9677 21.5114C36.9677 18.5349 34.9558 16.1154 32.4817 16.1154Z" fill="#44465B"/>
<path d="M18.4877 30.8586C13.1955 30.8586 8.89014 25.6799 8.89014 19.3146C8.89014 12.9506 13.1955 7.77197 18.4877 7.77197C23.7788 7.77197 28.0842 12.9506 28.0842 19.3146C28.0842 25.6799 23.7788 30.8586 18.4877 30.8586ZM18.4877 11.7244C15.007 11.7244 12.1759 15.129 12.1759 19.3146C12.1759 23.5002 15.007 26.9061 18.4877 26.9061C21.9673 26.9061 24.7985 23.5002 24.7985 19.3146C24.7985 15.129 21.9673 11.7244 18.4877 11.7244Z" fill="#44465B"/>
</svg>
