<svg width="70" height="70" viewBox="0 0 70 70" fill="none" xmlns="http://www.w3.org/2000/svg">
<path d="M0 34.7777C0 37.3177 2.05959 39.3773 4.59958 39.3773H16.6015V30.1781H4.59958C2.05959 30.1782 0 32.2375 0 34.7777Z" fill="#45475C"/>
<path d="M65.4004 30.1783H53.3982V39.3775H65.4004C67.9405 39.3775 69.9999 37.3178 69.9999 34.7779C69.9999 32.2376 67.9403 30.1783 65.4004 30.1783Z" fill="#45475C"/>
<path d="M34.9999 18.3984C33.0954 18.3984 31.55 19.9425 31.55 21.8481V47.7061C31.55 49.612 33.0953 51.1558 34.9999 51.1558C36.9044 51.1558 38.4495 49.612 38.4495 47.7061V21.8481C38.4495 19.9425 36.9044 18.3984 34.9999 18.3984Z" fill="#45475C"/>
<path d="M23.5009 18.3984C21.5965 18.3984 20.0513 19.9425 20.0513 21.8481V53.6487V66.1044C20.0513 68.0101 21.5964 69.5541 23.5009 69.5541C25.4056 69.5541 26.9506 68.0101 26.9506 66.1044V53.6487V21.8481C26.9506 19.9425 25.4056 18.3984 23.5009 18.3984Z" fill="#45475C"/>
<path d="M46.4987 0C44.5943 0 43.0491 1.54422 43.0491 3.4498V15.9054V47.706C43.0491 49.6119 44.5942 51.1557 46.4987 51.1557C48.4034 51.1557 49.9485 49.6119 49.9485 47.706V15.9054V3.4498C49.9485 1.54422 48.4034 0 46.4987 0Z" fill="#45475C"/>
</svg>
