<svg width="60" height="60" viewBox="0 0 60 60" fill="none" xmlns="http://www.w3.org/2000/svg">
<path d="M57.6 0H2.4C1.0725 0 0 1.0725 0 2.4V57.6C0 58.9275 1.0725 60 2.4 60H57.6C58.9275 60 60 58.9275 60 57.6V2.4C60 1.0725 58.9275 0 57.6 0ZM54.6 54.6H5.4V5.4H54.6V54.6ZM17.1 42.825V48.6C17.1 48.93 17.37 49.2 17.7 49.2H21.3C21.63 49.2 21.9 48.93 21.9 48.6V42.825C21.1425 43.0725 20.34 43.2 19.5 43.2C18.66 43.2 17.8575 43.065 17.1 42.825ZM21.9 27.975V11.4C21.9 11.07 21.63 10.8 21.3 10.8H17.7C17.37 10.8 17.1 11.07 17.1 11.4V27.975C17.8575 27.7275 18.66 27.6 19.5 27.6C20.34 27.6 21.1425 27.735 21.9 27.975ZM17.1 42.825C17.8575 43.0725 18.66 43.2 19.5 43.2C20.34 43.2 21.1425 43.065 21.9 42.825C25.035 41.8125 27.3 38.8725 27.3 35.4C27.3 31.9275 25.035 28.9875 21.9 27.975C21.1425 27.7275 20.34 27.6 19.5 27.6C18.66 27.6 17.8575 27.735 17.1 27.975C13.965 28.9875 11.7 31.9275 11.7 35.4C11.7 38.8725 13.965 41.8125 17.1 42.825ZM17.1075 34.1475C17.13 34.1025 17.16 34.0575 17.1825 34.0125V34.005L17.2725 33.87C17.28 33.855 17.2875 33.8475 17.295 33.8325C17.3175 33.795 17.3475 33.765 17.37 33.7275C17.3775 33.72 17.385 33.705 17.3925 33.6975C17.43 33.6525 17.46 33.615 17.4975 33.5775L17.52 33.555L17.61 33.465L17.64 33.435C17.6775 33.3975 17.715 33.3675 17.76 33.33C17.805 33.2925 17.8425 33.2625 17.8875 33.2325C17.9025 33.225 17.91 33.2175 17.925 33.21C17.9625 33.1875 17.9925 33.1575 18.03 33.135C18.0375 33.1275 18.0525 33.12 18.06 33.1125C18.105 33.0825 18.15 33.06 18.2025 33.03C18.21 33.0225 18.225 33.0225 18.2325 33.015C18.27 32.9925 18.3075 32.9775 18.3525 32.955L18.3975 32.9325C18.45 32.91 18.495 32.8875 18.5475 32.8725C18.6 32.85 18.6525 32.835 18.705 32.82C18.72 32.8125 18.735 32.8125 18.75 32.805C18.795 32.79 18.8325 32.7825 18.8775 32.775C18.8925 32.775 18.9 32.7675 18.915 32.7675C18.9675 32.7525 19.0275 32.745 19.08 32.7375C19.095 32.7375 19.1025 32.7375 19.1175 32.73C19.1625 32.7225 19.2075 32.7225 19.2525 32.715H19.2975C19.3575 32.715 19.41 32.7075 19.47 32.7075C19.53 32.7075 19.5825 32.7075 19.6425 32.715H19.6875C19.7325 32.715 19.7775 32.7225 19.8225 32.73C19.8375 32.73 19.845 32.73 19.86 32.7375C19.9125 32.745 19.9725 32.7525 20.025 32.7675C20.04 32.7675 20.0475 32.775 20.0625 32.775C20.1075 32.7825 20.1525 32.7975 20.19 32.805C20.205 32.8125 20.22 32.8125 20.235 32.82C20.2875 32.835 20.34 32.85 20.3925 32.8725C20.445 32.8875 20.49 32.91 20.5425 32.9325L20.5875 32.955C20.625 32.97 20.67 32.9925 20.7075 33.015C20.715 33.0225 20.73 33.0225 20.7375 33.03C20.7825 33.0525 20.835 33.0825 20.88 33.1125C20.8875 33.12 20.9025 33.1275 20.91 33.135C20.9475 33.1575 20.985 33.18 21.015 33.21C21.03 33.2175 21.0375 33.225 21.0525 33.2325C21.0975 33.2625 21.1425 33.3 21.18 33.33C21.2175 33.36 21.2625 33.3975 21.3 33.435L21.33 33.465L21.42 33.555L21.4425 33.5775C21.48 33.615 21.5175 33.66 21.5475 33.6975C21.555 33.705 21.5625 33.72 21.57 33.7275C21.6 33.7575 21.6225 33.795 21.645 33.8325C21.6525 33.8475 21.66 33.855 21.6675 33.87L21.7575 34.005C21.7575 34.005 21.7575 34.0125 21.765 34.0125C22.0151 34.4321 22.1472 34.9115 22.1475 35.4C22.1475 35.85 22.035 36.2775 21.84 36.6525C21.8175 36.6975 21.7875 36.7425 21.765 36.7875C21.765 36.7875 21.765 36.795 21.7575 36.795L21.6675 36.93C21.66 36.945 21.6525 36.9525 21.645 36.9675C21.6225 37.005 21.5925 37.035 21.57 37.0725C21.5625 37.08 21.555 37.095 21.5475 37.1025C21.51 37.1475 21.48 37.185 21.4425 37.2225L21.42 37.245L21.33 37.335L21.3 37.365C21.2625 37.4025 21.225 37.4325 21.18 37.47C21.135 37.5075 21.0975 37.5375 21.0525 37.5675C21.0375 37.575 21.03 37.5825 21.015 37.59C20.9775 37.6125 20.9475 37.6425 20.91 37.665C20.9025 37.6725 20.8875 37.68 20.88 37.6875C20.835 37.7175 20.79 37.74 20.7375 37.77C20.73 37.7775 20.715 37.7775 20.7075 37.785C20.67 37.8075 20.6325 37.8225 20.5875 37.845L20.5425 37.8675C20.49 37.89 20.445 37.9125 20.3925 37.9275C20.34 37.95 20.2875 37.965 20.235 37.98C20.22 37.9875 20.205 37.9875 20.19 37.995C20.145 38.01 20.1075 38.0175 20.0625 38.025C20.0475 38.025 20.04 38.0325 20.025 38.0325C19.9725 38.0475 19.9125 38.055 19.86 38.0625C19.845 38.0625 19.8375 38.0625 19.8225 38.07C19.7775 38.0775 19.7325 38.0775 19.6875 38.085H19.6425C19.5825 38.085 19.53 38.0925 19.47 38.0925C19.41 38.0925 19.3575 38.0925 19.2975 38.085H19.2525C19.2075 38.085 19.1625 38.0775 19.1175 38.07C19.1025 38.07 19.095 38.07 19.08 38.0625C19.0275 38.055 18.9675 38.0475 18.915 38.0325C18.9 38.0325 18.8925 38.025 18.8775 38.025C18.8325 38.0175 18.7875 38.0025 18.75 37.995C18.735 37.9875 18.72 37.9875 18.705 37.98C18.6525 37.965 18.6 37.95 18.5475 37.9275C18.495 37.9125 18.45 37.89 18.3975 37.8675L18.3525 37.845C18.315 37.83 18.27 37.8075 18.2325 37.785C18.225 37.7775 18.21 37.7775 18.2025 37.77C18.1575 37.7475 18.105 37.7175 18.06 37.6875C18.0525 37.68 18.0375 37.6725 18.03 37.665C17.9925 37.6425 17.955 37.62 17.925 37.59C17.91 37.5825 17.9025 37.575 17.8875 37.5675C17.8425 37.5375 17.7975 37.5 17.76 37.47C17.7225 37.44 17.6775 37.4025 17.64 37.365L17.61 37.335L17.52 37.245L17.4975 37.2225C17.46 37.185 17.4225 37.14 17.3925 37.1025C17.385 37.095 17.3775 37.08 17.37 37.0725C17.34 37.0425 17.3175 37.005 17.295 36.9675C17.2875 36.9525 17.28 36.945 17.2725 36.93L17.1825 36.795V36.7875C17.1525 36.7425 17.13 36.6975 17.1075 36.6525C16.9125 36.2775 16.8 35.85 16.8 35.4C16.8 34.95 16.9125 34.5225 17.1075 34.1475ZM38.1 32.025V48.6C38.1 48.93 38.37 49.2 38.7 49.2H42.3C42.63 49.2 42.9 48.93 42.9 48.6V32.025C42.1425 32.2725 41.34 32.4 40.5 32.4C39.66 32.4 38.8575 32.265 38.1 32.025ZM42.9 17.175V11.4C42.9 11.07 42.63 10.8 42.3 10.8H38.7C38.37 10.8 38.1 11.07 38.1 11.4V17.175C38.8575 16.9275 39.66 16.8 40.5 16.8C41.34 16.8 42.1425 16.935 42.9 17.175ZM38.1 32.025C38.8575 32.2725 39.66 32.4 40.5 32.4C41.34 32.4 42.1425 32.265 42.9 32.025C46.035 31.0125 48.3 28.0725 48.3 24.6C48.3 21.1275 46.035 18.1875 42.9 17.175C42.1425 16.9275 41.34 16.8 40.5 16.8C39.66 16.8 38.8575 16.935 38.1 17.175C34.965 18.1875 32.7 21.1275 32.7 24.6C32.7 28.0725 34.965 31.0125 38.1 32.025ZM38.1075 23.3475C38.13 23.3025 38.16 23.2575 38.1825 23.2125V23.205L38.2725 23.07C38.28 23.055 38.2875 23.0475 38.295 23.0325C38.3175 22.995 38.3475 22.965 38.37 22.9275C38.3775 22.92 38.385 22.905 38.3925 22.8975C38.43 22.8525 38.46 22.815 38.4975 22.7775L38.52 22.755L38.61 22.665L38.64 22.635C38.6775 22.5975 38.715 22.5675 38.76 22.53C38.805 22.4925 38.8425 22.4625 38.8875 22.4325C38.9025 22.425 38.91 22.4175 38.925 22.41C38.9625 22.3875 38.9925 22.3575 39.03 22.335C39.0375 22.3275 39.0525 22.32 39.06 22.3125C39.105 22.2825 39.15 22.26 39.2025 22.23C39.21 22.2225 39.225 22.2225 39.2325 22.215C39.27 22.1925 39.3075 22.1775 39.3525 22.155L39.3975 22.1325C39.45 22.11 39.495 22.0875 39.5475 22.0725C39.6 22.05 39.6525 22.035 39.705 22.02C39.72 22.0125 39.735 22.0125 39.75 22.005C39.795 21.99 39.8325 21.9825 39.8775 21.975C39.8925 21.975 39.9 21.9675 39.915 21.9675C39.9675 21.9525 40.0275 21.945 40.08 21.9375C40.095 21.9375 40.1025 21.9375 40.1175 21.93C40.1625 21.9225 40.2075 21.9225 40.2525 21.915H40.2975C40.3575 21.915 40.41 21.9075 40.47 21.9075C40.53 21.9075 40.5825 21.9075 40.6425 21.915H40.6875C40.7325 21.915 40.7775 21.9225 40.8225 21.93C40.8375 21.93 40.845 21.93 40.86 21.9375C40.9125 21.945 40.9725 21.9525 41.025 21.9675C41.04 21.9675 41.0475 21.975 41.0625 21.975C41.1075 21.9825 41.1525 21.9975 41.19 22.005C41.205 22.0125 41.22 22.0125 41.235 22.02C41.2875 22.035 41.34 22.05 41.3925 22.0725C41.445 22.0875 41.49 22.11 41.5425 22.1325L41.5875 22.155C41.625 22.17 41.67 22.1925 41.7075 22.215C41.715 22.2225 41.73 22.2225 41.7375 22.23C41.7825 22.2525 41.835 22.2825 41.88 22.3125C41.8875 22.32 41.9025 22.3275 41.91 22.335C41.9475 22.3575 41.985 22.38 42.015 22.41C42.03 22.4175 42.0375 22.425 42.0525 22.4325C42.0975 22.4625 42.1425 22.5 42.18 22.53C42.2175 22.56 42.2625 22.5975 42.3 22.635L42.33 22.665L42.42 22.755L42.4425 22.7775C42.48 22.815 42.5175 22.86 42.5475 22.8975C42.555 22.905 42.5625 22.92 42.57 22.9275C42.6 22.9575 42.6225 22.995 42.645 23.0325C42.6525 23.0475 42.66 23.055 42.6675 23.07L42.7575 23.205V23.2125C43.0076 23.6321 43.1397 24.1115 43.14 24.6C43.14 25.05 43.0275 25.4775 42.8325 25.8525C42.81 25.8975 42.78 25.9425 42.7575 25.9875V25.995L42.6675 26.13C42.66 26.145 42.6525 26.1525 42.645 26.1675C42.6225 26.205 42.5925 26.235 42.57 26.2725C42.5625 26.28 42.555 26.295 42.5475 26.3025C42.51 26.3475 42.48 26.385 42.4425 26.4225L42.42 26.445L42.33 26.535L42.3 26.565C42.2625 26.6025 42.225 26.6325 42.18 26.67C42.135 26.7075 42.0975 26.7375 42.0525 26.7675C42.0375 26.775 42.03 26.7825 42.015 26.79C41.9775 26.8125 41.9475 26.8425 41.91 26.865C41.9025 26.8725 41.8875 26.88 41.88 26.8875C41.835 26.9175 41.79 26.94 41.7375 26.97C41.73 26.9775 41.715 26.9775 41.7075 26.985C41.67 27.0075 41.6325 27.0225 41.5875 27.045L41.5425 27.0675C41.49 27.09 41.445 27.1125 41.3925 27.1275C41.34 27.15 41.2875 27.165 41.235 27.18C41.22 27.1875 41.205 27.1875 41.19 27.195C41.145 27.21 41.1075 27.2175 41.0625 27.225C41.0475 27.225 41.04 27.2325 41.025 27.2325C40.9725 27.2475 40.9125 27.255 40.86 27.2625C40.845 27.2625 40.8375 27.2625 40.8225 27.27C40.7775 27.2775 40.7325 27.2775 40.6875 27.285H40.6425C40.5825 27.285 40.53 27.2925 40.47 27.2925C40.41 27.2925 40.3575 27.2925 40.2975 27.285H40.2525C40.2075 27.285 40.1625 27.2775 40.1175 27.27C40.1025 27.27 40.095 27.27 40.08 27.2625C40.0275 27.255 39.9675 27.2475 39.915 27.2325C39.9 27.2325 39.8925 27.225 39.8775 27.225C39.8325 27.2175 39.7875 27.2025 39.75 27.195C39.735 27.1875 39.72 27.1875 39.705 27.18C39.6525 27.165 39.6 27.15 39.5475 27.1275C39.495 27.1125 39.45 27.09 39.3975 27.0675L39.3525 27.045C39.315 27.03 39.27 27.0075 39.2325 26.985C39.225 26.9775 39.21 26.9775 39.2025 26.97C39.1575 26.9475 39.105 26.9175 39.06 26.8875C39.0525 26.88 39.0375 26.8725 39.03 26.865C38.9925 26.8425 38.955 26.82 38.925 26.79C38.91 26.7825 38.9025 26.775 38.8875 26.7675C38.8425 26.7375 38.7975 26.7 38.76 26.67C38.7225 26.64 38.6775 26.6025 38.64 26.565L38.61 26.535L38.52 26.445L38.4975 26.4225C38.46 26.385 38.4225 26.34 38.3925 26.3025C38.385 26.295 38.3775 26.28 38.37 26.2725C38.34 26.2425 38.3175 26.205 38.295 26.1675C38.2875 26.1525 38.28 26.145 38.2725 26.13L38.1825 25.995V25.9875C38.1525 25.9425 38.13 25.8975 38.1075 25.8525C37.9125 25.4775 37.8 25.05 37.8 24.6C37.8 24.15 37.9125 23.7225 38.1075 23.3475Z" fill="#44465B"/>
</svg>
