<svg width="65" height="56" viewBox="0 0 65 56" fill="none" xmlns="http://www.w3.org/2000/svg">
<path d="M38.8587 48.4665C38.8587 52.2928 36.0173 55.3892 32.506 55.3892C28.9942 55.3892 26.1524 52.2928 26.1524 48.4665C26.1524 44.6388 28.9942 41.5424 32.506 41.5424C36.0171 41.5424 38.8587 44.6388 38.8587 48.4665ZM17.881 35.1384L22.7519 39.5892C27.61 33.2663 37.4133 33.2663 42.2651 39.5944L47.1423 35.1583C43.5 30.4135 38.1642 27.6947 32.5058 27.6947C26.8469 27.6947 21.5174 30.4062 17.881 35.1384ZM8.95966 25.2203L13.6688 29.8724C18.4772 24.0844 25.3393 20.7716 32.506 20.7716C39.6666 20.7716 46.5286 24.0844 51.3375 29.8587L56.0405 25.2066C50.0272 17.9852 41.4518 13.8477 32.506 13.8477C23.5526 13.8475 14.9715 17.9989 8.95966 25.2203ZM0 15.3829L4.64063 20.1092C11.8253 11.7308 21.9827 6.9234 32.5058 6.9234C43.1844 6.9234 53.0737 11.6029 60.3583 20.0953L64.9998 15.3617C56.623 5.59895 44.778 0 32.5056 0C20.2266 0 8.38225 5.60534 0 15.3829Z" fill="#45475C"/>
</svg>
