<svg width="32" height="31" viewBox="0 0 32 31" fill="none" xmlns="http://www.w3.org/2000/svg">
<path d="M18.7254 30.7881C18.5739 30.7942 18.477 30.8063 18.38 30.8063C16.3077 30.8063 14.2414 30.8002 12.1691 30.8123C11.8782 30.8123 11.7995 30.7336 11.7995 30.443C11.8055 25.6235 11.8055 20.7979 11.8055 15.9783C11.8055 15.8512 11.8055 15.724 11.8055 15.5606C10.6785 15.5606 9.58173 15.5606 8.4668 15.5606C8.4668 13.841 8.4668 12.1518 8.4668 10.4141C8.58193 10.4141 8.69099 10.4141 8.79401 10.4141C9.70292 10.4141 10.6118 10.408 11.5207 10.4201C11.751 10.4201 11.8116 10.3535 11.8116 10.1295C11.7995 8.77931 11.7995 7.42306 11.8116 6.07287C11.8177 5.12834 11.9691 4.20802 12.4054 3.35431C13.0295 2.14943 14.0172 1.36837 15.2655 0.884C16.2834 0.48439 17.356 0.339078 18.4345 0.320914C20.1918 0.296695 21.949 0.308804 23.7062 0.30275C23.8698 0.30275 24.0031 0.296695 24.0031 0.526773C23.9971 2.19181 23.9971 3.85685 23.9971 5.52189C23.9971 5.54005 23.991 5.55822 23.9668 5.63693C23.8638 5.63693 23.7486 5.63693 23.6335 5.63693C22.5428 5.63693 21.4521 5.63087 20.3614 5.63693C19.7313 5.63693 19.2223 5.89123 18.9011 6.4422C18.8042 6.60568 18.7436 6.81759 18.7436 7.01134C18.7254 8.04064 18.7436 9.06994 18.7315 10.0992C18.7315 10.3414 18.8042 10.408 19.0405 10.408C20.5553 10.3959 22.0702 10.402 23.585 10.402C23.7062 10.402 23.8214 10.402 24.0274 10.402C23.8153 12.1336 23.6093 13.8289 23.3972 15.5424C21.8218 15.5424 20.2887 15.5424 18.7254 15.5424C18.7254 20.6344 18.7254 25.6961 18.7254 30.7881Z" fill="white"/>
</svg>
