<svg width="67" height="67" viewBox="0 0 67 67" fill="none" xmlns="http://www.w3.org/2000/svg">
<path d="M14.3571 18.8238L7.56143 12.06L12.06 7.56143L18.8238 14.3571L14.3571 18.8238ZM36.6905 0V9.57143H30.3095V0H36.6905ZM59.4386 12.06L52.6429 18.8238L48.1762 14.3571L54.94 7.56143L59.4386 12.06ZM9.57143 30.3095V36.6905H0V30.3095H9.57143ZM57.4286 30.3095H67V36.6905H57.4286V30.3095ZM14.3571 60.619H52.6429C54.3352 60.619 55.9582 61.2913 57.1549 62.488C58.3515 63.6846 59.0238 65.3077 59.0238 67H7.97619C7.97619 65.3077 8.64847 63.6846 9.84513 62.488C11.0418 61.2913 12.6648 60.619 14.3571 60.619ZM33.5 12.7619C38.577 12.7619 43.4461 14.7787 47.036 18.3687C50.626 21.9587 52.6429 26.8278 52.6429 31.9048V57.4286H14.3571V31.9048C14.3571 26.8278 16.374 21.9587 19.964 18.3687C23.5539 14.7787 28.423 12.7619 33.5 12.7619ZM33.5 19.1429C30.1153 19.1429 26.8693 20.4874 24.476 22.8807C22.0826 25.2741 20.7381 28.5201 20.7381 31.9048V51.0476H46.2619V31.9048C46.2619 28.5201 44.9174 25.2741 42.524 22.8807C40.1307 20.4874 36.8847 19.1429 33.5 19.1429Z" fill="#44465B"/>
</svg>
