<svg width="32" height="31" viewBox="0 0 32 31" fill="none" xmlns="http://www.w3.org/2000/svg">
<g clip-path="url(#clip0)">
<path d="M30.6883 15.5606C30.6883 17.6677 30.6459 19.7808 30.7004 21.8878C30.7913 25.6175 28.4463 28.4995 25.459 29.7831C24.2593 30.2977 22.9989 30.5702 21.6961 30.5702C17.6181 30.5763 13.5341 30.6308 9.4561 30.552C6.38398 30.4915 3.8572 29.2079 2.04543 26.677C1.0941 25.345 0.639648 23.8313 0.639648 22.1905C0.639648 17.8493 0.639648 13.5142 0.639648 9.17295C0.639648 5.63095 2.36658 3.15459 5.43265 1.54404C6.76572 0.847752 8.21392 0.551072 9.72272 0.545018C13.6795 0.545018 17.6424 0.520799 21.5992 0.557127C24.6713 0.581346 27.2344 1.75595 29.125 4.22627C30.1793 5.60674 30.6883 7.19306 30.6883 8.93681C30.6883 11.1407 30.6883 13.3507 30.6883 15.5606ZM2.87557 15.5606C2.87557 17.7827 2.87557 19.9987 2.87557 22.2208C2.87557 23.2138 3.10583 24.1462 3.62088 24.9878C4.97213 27.1977 7.01416 28.2755 9.54699 28.3179C13.6129 28.3784 17.6848 28.3421 21.7567 28.33C22.7565 28.33 23.726 28.1241 24.6289 27.6942C27.089 26.5196 28.4645 24.6487 28.4524 21.8393C28.4281 17.5405 28.4463 13.2417 28.4463 8.94287C28.4463 7.72588 28.1009 6.61181 27.3799 5.63095C25.9862 3.74795 24.0593 2.82158 21.7567 2.79736C17.6969 2.74892 13.6371 2.7792 9.57729 2.78525C8.71079 2.78525 7.87459 2.96084 7.06263 3.26357C4.83277 4.09306 2.76044 6.19404 2.8574 9.28798C2.93011 11.3829 2.87557 13.4718 2.87557 15.5606Z" fill="white"/>
<path d="M15.6971 21.9785C11.7888 21.9785 8.6379 18.8664 8.63184 14.9914C8.62579 11.177 11.8009 8.05274 15.685 8.05274C19.5812 8.04669 22.7442 11.1649 22.7503 15.0096C22.7503 18.8482 19.5933 21.9725 15.6971 21.9785ZM15.6971 19.7383C18.3572 19.7383 20.5144 17.6131 20.5083 14.9975C20.5022 12.4061 18.3451 10.2869 15.6971 10.2869C13.037 10.2869 10.8678 12.4 10.8678 15.0096C10.8738 17.6252 13.037 19.7443 15.6971 19.7383Z" fill="white"/>
<path d="M23.5684 5.93359C24.3864 5.93359 25.0529 6.62988 25.0529 7.48359C25.0469 8.3373 24.3743 9.02754 23.5563 9.02148C22.7504 9.01543 22.0899 8.32519 22.0899 7.48965C22.0838 6.63594 22.7504 5.93359 23.5684 5.93359Z" fill="white"/>
</g>
<defs>
<clipPath id="clip0">
<rect x="0.0883789" width="31.0242" height="31" fill="white"/>
</clipPath>
</defs>
</svg>
